<svg xmlns="http://www.w3.org/2000/svg" width="1200" height="900" viewBox="0 0 1200 900">
  <rect width="1200" height="900" fill="#f8fafc"/>
  <!-- Sidebar -->
  <rect width="260" height="900" fill="#0f172a"/>
  <rect x="24" y="32" width="180" height="32" rx="8" fill="#2563eb"/>
  <text x="64" y="55" font-family="Arial, sans-serif" font-size="18" font-weight="bold" fill="white">Coopvest</text>
  
  <!-- Nav items -->
  <rect x="24" y="100" width="212" height="40" rx="6" fill="rgba(255,255,255,0.1)"/>
  <circle cx="48" cy="120" r="10" fill="#94a3b8"/>
  <rect x="68" y="112" width="120" height="16" rx="4" fill="#94a3b8"/>
  
  <rect x="24" y="152" width="212" height="40" rx="6" fill="rgba(255,255,255,0.1)"/>
  <circle cx="48" cy="172" r="10" fill="#94a3b8"/>
  <rect x="68" y="164" width="100" height="16" rx="4" fill="#94a3b8"/>
  
  <rect x="24" y="204" width="212" height="40" rx="6" fill="rgba(255,255,255,0.1)"/>
  <circle cx="48" cy="224" r="10" fill="#94a3b8"/>
  <rect x="68" y="216" width="80" height="16" rx="4" fill="#94a3b8"/>
  
  <rect x="24" y="256" width="212" height="40" rx="6" fill="#2563eb"/>
  <circle cx="48" cy="276" r="10" fill="white"/>
  <rect x="68" y="268" width="100" height="16" rx="4" fill="white"/>
  
  <!-- Header -->
  <rect x="260" y="0" width="940" height="80" fill="white"/>
  <rect x="300" y="20" width="300" height="40" rx="8" fill="#f1f5f9"/>
  <circle cx="1100" cy="40" r="20" fill="#2563eb"/>
  <text x="1092" y="46" font-family="Arial" font-size="14" fill="white">CV</text>
  
  <!-- Main content area -->
  <rect x="300" y="120" width="860" height="740" fill="#f8fafc"/>
  
  <!-- Stats cards -->
  <rect x="320" y="140" width="200" height="100" rx="12" fill="white"/>
  <rect x="340" y="160" width="48" height="48" rx="12" fill="#dbeafe"/>
  <circle cx="364" cy="184" r="16" fill="#2563eb"/>
  <text x="364" y="190" font-family="Arial" font-size="18" font-weight="bold" fill="white">$</text>
  <text x="340" y="228" font-family="Arial" font-size="28" font-weight="bold" fill="#0f172a">$124K</text>
  <text x="340" y="250" font-family="Arial" font-size="12" fill="#64748b">Total Revenue</text>
  
  <rect x="540" y="140" width="200" height="100" rx="12" fill="white"/>
  <rect x="560" y="160" width="48" height="48" rx="12" fill="#d1fae5"/>
  <circle cx="584" cy="184" r="16" fill="#10b981"/>
  <text x="576" y="190" font-family="Arial" font-size="18" font-weight="bold" fill="white">+</text>
  <text x="560" y="228" font-family="Arial" font-size="28" font-weight="bold" fill="#0f172a">1,428</text>
  <text x="560" y="250" font-family="Arial" font-size="12" fill="#64748b">Active Members</text>
  
  <rect x="760" y="140" width="200" height="100" rx="12" fill="white"/>
  <rect x="780" y="160" width="48" height="48" rx="12" fill="#ede9fe"/>
  <circle cx="804" cy="184" r="16" fill="#7c3aed"/>
  <text x="796" y="190" font-family="Arial" font-size="18" font-weight="bold" fill="white">#</text>
  <text x="780" y="228" font-family="Arial" font-size="28" font-weight="bold" fill="#0f172a">89</text>
  <text x="780" y="250" font-family="Arial" font-size="12" fill="#64748b">Pending Loans</text>
  
  <rect x="980" y="140" width="160" height="100" rx="12" fill="white"/>
  <rect x="1000" y="160" width="48" height="48" rx="12" fill="#fef3c7"/>
  <circle cx="1024" cy="184" r="16" fill="#f59e0b"/>
  <text x="1016" y="192" font-family="Arial" font-size="18" font-weight="bold" fill="white">%</text>
  <text x="1000" y="228" font-family="Arial" font-size="28" font-weight="bold" fill="#0f172a">98%</text>
  <text x="1000" y="250" font-family="Arial" font-size="12" fill="#64748b">Approval Rate</text>
  
  <!-- Chart section -->
  <rect x="320" y="280" width="540" height="320" rx="12" fill="white"/>
  <text x="340" y="320" font-family="Arial" font-size="16" font-weight="bold" fill="#0f172a">Revenue Overview</text>
  
  <!-- Chart placeholder -->
  <rect x="340" y="340" width="500" height="240" fill="#f8fafc"/>
  <polyline points="360,540 400,480 440,500 480,420 520,440 560,380 600,400 640,360 680,340 720,300 760,320 800,280"
            fill="none" stroke="#2563eb" stroke-width="3"/>
  <circle cx="360" cy="540" r="4" fill="#2563eb"/>
  <circle cx="400" cy="480" r="4" fill="#2563eb"/>
  <circle cx="440" cy="500" r="4" fill="#2563eb"/>
  <circle cx="480" cy="420" r="4" fill="#2563eb"/>
  <circle cx="520" cy="440" r="4" fill="#2563eb"/>
  <circle cx="560" cy="380" r="4" fill="#2563eb"/>
  <circle cx="600" cy="400" r="4" fill="#2563eb"/>
  <circle cx="640" cy="360" r="4" fill="#2563eb"/>
  <circle cx="680" cy="340" r="4" fill="#2563eb"/>
  <circle cx="720" cy="300" r="4" fill="#2563eb"/>
  <circle cx="760" cy="320" r="4" fill="#2563eb"/>
  <circle cx="800" cy="280" r="4" fill="#2563eb"/>
  
  <!-- Activity section -->
  <rect x="880" y="280" width="260" height="320" rx="12" fill="white"/>
  <text x="900" y="320" font-family="Arial" font-size="16" font-weight="bold" fill="#0f172a">Recent Activity</text>
  
  <!-- Activity items -->
  <rect x="900" y="340" width="220" height="50" rx="8" fill="#f8fafc"/>
  <circle cx="920" cy="365" r="16" fill="#dbeafe"/>
  <text x="914" y="372" font-family="Arial" font-size="14" fill="#2563eb">$</text>
  <text x="946" y="355" font-family="Arial" font-size="12" font-weight="bold" fill="#0f172a">Loan Approved</text>
  <text x="946" y="372" font-family="Arial" font-size="10" fill="#64748b">2 mins ago</text>
  
  <rect x="900" y="400" width="220" height="50" rx="8" fill="#f8fafc"/>
  <circle cx="920" cy="425" r="16" fill="#d1fae5"/>
  <text x="914" y="432" font-family="Arial" font-size="14" fill="#10b981">+</text>
  <text x="946" y="415" font-family="Arial" font-size="12" font-weight="bold" fill="#0f172a">New Member</text>
  <text x="946" y="432" font-family="Arial" font-size="10" fill="#64748b">15 mins ago</text>
  
  <rect x="900" y="460" width="220" height="50" rx="8" fill="#f8fafc"/>
  <circle cx="920" cy="485" r="16" fill="#ede9fe"/>
  <text x="912" y="492" font-family="Arial" font-size="14" fill="#7c3aed">#</text>
  <text x="946" y="475" font-family="Arial" font-size="12" font-weight="bold" fill="#0f172a">Investment Added</text>
  <text x="946" y="492" font-family="Arial" font-size="10" fill="#64748b">1 hour ago</text>
  
  <!-- Quick actions -->
  <rect x="320" y="640" width="820" height="100" rx="12" fill="white"/>
  <text x="340" y="680" font-family="Arial" font-size="16" font-weight="bold" fill="#0f172a">Quick Actions</text>
  
  <rect x="340" y="700" width="120" height="30" rx="6" fill="#2563eb"/>
  <text x="370" y="720" font-family="Arial" font-size="12" fill="white">Add Member</text>
  
  <rect x="480" y="700" width="100" height="30" rx="6" fill="#10b981"/>
  <text x="505" y="720" font-family="Arial" font-size="12" fill="white">New Loan</text>
  
  <rect x="600" y="700" width="130" height="30" rx="6" fill="#7c3aed"/>
  <text x="630" y="720" font-family="Arial" font-size="12" fill="white">Add Investment</text>
  
  <rect x="750" y="700" width="120" height="30" rx="6" fill="#f59e0b"/>
  <text x="780" y="720" font-family="Arial" font-size="12" fill="white">View Reports</text>
</svg>
